<svg width="50" height="50" viewBox="0 0 50 50" fill="none" xmlns="http://www.w3.org/2000/svg">
<path fill-rule="evenodd" clip-rule="evenodd" d="M27.1259 36.5651H47.6652C48.6761 36.5651 49.3186 37.6518 48.8367 38.5305L43.5177 48.3008C43.2815 48.7354 42.8375 49 42.3462 49H11.8396C11.4806 49 11.1404 48.8488 10.8853 48.5937L1.38096 38.8234C0.559015 37.9825 1.15422 36.5651 2.33518 36.5651H24.4522V2.3315C24.4522 1.28267 25.6143 0.649587 26.5024 1.20708C27.1259 1.60393 41.8265 11.1191 44.897 31.6611C45.0104 32.4643 44.3869 33.1919 43.5744 33.1919H27.1259V36.5651ZM29.1288 23.7618H27.1259V30.5272H41.9966C39.4268 16.59 31.0373 8.23711 27.1259 5.00557V15.7679H32.4544C33.1914 15.7679 33.7866 16.3632 33.7866 17.1003C33.7866 17.8373 33.1914 18.4326 32.4544 18.4326H27.1259V21.0972H29.1288C29.8658 21.0972 30.461 21.6925 30.461 22.4295C30.461 23.1665 29.8658 23.7618 29.1288 23.7618ZM12.4064 46.3354H41.5526L45.4261 39.2392H5.50016L12.4064 46.3354Z" fill="url(#paint0_linear)"/>
<path fill-rule="evenodd" clip-rule="evenodd" d="M5.27342 31.1981L18.8781 7.6135C19.5583 6.43238 21.3628 6.92372 21.3628 8.28438V31.869C21.3628 32.606 20.7676 33.2013 20.0307 33.2013H6.42604C5.40569 33.2013 4.76325 32.0863 5.27342 31.1981ZM8.74073 30.5367H18.6986V13.264L8.74073 30.5367Z" fill="url(#paint1_linear)"/>
<path fill-rule="evenodd" clip-rule="evenodd" d="M27.1259 36.5651H47.6652C48.6761 36.5651 49.3186 37.6518 48.8367 38.5305L43.5177 48.3008C43.2815 48.7354 42.8375 49 42.3462 49H11.8396C11.4806 49 11.1404 48.8488 10.8853 48.5937L1.38096 38.8234C0.559015 37.9825 1.15422 36.5651 2.33518 36.5651H24.4522V2.3315C24.4522 1.28267 25.6143 0.649587 26.5024 1.20708C27.1259 1.60393 41.8265 11.1191 44.897 31.6611C45.0104 32.4643 44.3869 33.1919 43.5744 33.1919H27.1259V36.5651ZM29.1288 23.7618H27.1259V30.5272H41.9966C39.4268 16.59 31.0373 8.23711 27.1259 5.00557V15.7679H32.4544C33.1914 15.7679 33.7866 16.3632 33.7866 17.1003C33.7866 17.8373 33.1914 18.4326 32.4544 18.4326H27.1259V21.0972H29.1288C29.8658 21.0972 30.461 21.6925 30.461 22.4295C30.461 23.1665 29.8658 23.7618 29.1288 23.7618ZM12.4064 46.3354H41.5526L45.4261 39.2392H5.50016L12.4064 46.3354Z" stroke="url(#paint2_linear)" stroke-width="0.2"/>
<path fill-rule="evenodd" clip-rule="evenodd" d="M5.27342 31.1981L18.8781 7.6135C19.5583 6.43238 21.3628 6.92372 21.3628 8.28438V31.869C21.3628 32.606 20.7676 33.2013 20.0307 33.2013H6.42604C5.40569 33.2013 4.76325 32.0863 5.27342 31.1981ZM8.74073 30.5367H18.6986V13.264L8.74073 30.5367Z" stroke="url(#paint3_linear)" stroke-width="0.2"/>
<defs>
<linearGradient id="paint0_linear" x1="0.999998" y1="49.0009" x2="49.0019" y2="48.9972" gradientUnits="userSpaceOnUse">
<stop stop-color="#ED4924"/>
<stop offset="1" stop-color="#F17322"/>
</linearGradient>
<linearGradient id="paint1_linear" x1="0.999998" y1="49.0009" x2="49.0019" y2="48.9972" gradientUnits="userSpaceOnUse">
<stop stop-color="#ED4924"/>
<stop offset="1" stop-color="#F17322"/>
</linearGradient>
<linearGradient id="paint2_linear" x1="0.999998" y1="49.0009" x2="49.0019" y2="48.9972" gradientUnits="userSpaceOnUse">
<stop stop-color="#ED4924"/>
<stop offset="1" stop-color="#F17322"/>
</linearGradient>
<linearGradient id="paint3_linear" x1="0.999998" y1="49.0009" x2="49.0019" y2="48.9972" gradientUnits="userSpaceOnUse">
<stop stop-color="#ED4924"/>
<stop offset="1" stop-color="#F17322"/>
</linearGradient>
</defs>
</svg>
