<svg width="48" height="48" viewBox="0 0 48 48" fill="none" xmlns="http://www.w3.org/2000/svg">
<path d="M37.7474 33.6838C38.2435 33.6838 38.6458 33.2816 38.6458 32.7854C38.6458 32.2892 38.2435 31.887 37.7474 31.887C37.2512 31.887 36.8489 32.2892 36.8489 32.7854C36.8489 33.2816 37.2512 33.6838 37.7474 33.6838Z" fill="url(#paint0_linear)"/>
<path d="M46.3046 9.63524C45.859 8.58218 45.222 7.63694 44.4098 6.82484C43.5985 6.01364 42.6524 5.37602 41.5995 4.93084C40.5097 4.4695 39.3525 4.23563 38.1585 4.23563H38.1566C37.4109 4.23563 36.6688 4.32916 35.9509 4.51352C35.2556 4.69249 34.5827 4.9569 33.9501 5.29956C31.6412 2.5675 28.2657 1 24.6908 1C23.7142 1 22.7439 1.11599 21.8041 1.34617C20.8913 1.56925 20.0037 1.90014 19.1664 2.33005C18.3443 2.75186 17.5681 3.26891 16.861 3.86781C16.1584 4.46321 15.5223 5.13946 14.9724 5.876C14.2403 5.35347 13.437 4.94791 12.5835 4.67003C11.7003 4.38127 10.7785 4.23563 9.84323 4.23563H9.84143C8.64741 4.23563 7.49022 4.4695 6.40033 4.93084C5.34736 5.37602 4.4013 6.01364 3.59011 6.82484C2.77792 7.63694 2.13994 8.58209 1.6953 9.63524C1.2344 10.7251 1 11.8835 1 13.0778C1 15.3693 1.87409 17.5428 3.45902 19.1959C4.23078 20.0007 5.13281 20.6447 6.14086 21.1096C7.17954 21.589 8.28813 21.8579 9.43633 21.9101L11.174 46.1646C11.1902 46.3931 11.2908 46.6035 11.4578 46.759C11.6241 46.9146 11.8415 47.0001 12.0697 47.0001H36.7938C37.022 47.0001 37.2394 46.9146 37.4057 46.759C37.5727 46.6034 37.6733 46.393 37.6896 46.1646L38.3543 36.8855C38.3714 36.6453 38.2941 36.4142 38.1369 36.2326C37.9797 36.0509 37.7614 35.9412 37.5224 35.9241C37.5008 35.9223 37.4784 35.9214 37.4569 35.9214C36.9887 35.9214 36.5962 36.2883 36.562 36.7559L36.2211 41.518H30.8518L31.0597 38.5429C31.0943 38.0474 30.721 37.6177 30.2261 37.583C29.7313 37.5479 29.3018 37.9219 29.2672 38.4174L29.0506 41.518H19.7762L19.5596 38.4174C19.525 37.922 19.0962 37.5481 18.6007 37.583C18.1056 37.6177 17.7324 38.0474 17.7671 38.5429L17.9749 41.518H12.6797C12.6671 41.518 12.6548 41.5194 12.6423 41.5199L11.2296 21.7974C12.1364 21.637 13.0604 21.3245 13.9045 20.8869C14.3451 20.6584 14.5174 20.1158 14.2891 19.6747C14.0609 19.2339 13.5191 19.0614 13.0781 19.2898C12.1689 19.7612 11.1541 20.0523 10.2182 20.1108C10.0887 20.1169 9.96245 20.1205 9.84152 20.1205C7.9602 20.1205 6.19117 19.3875 4.85969 18.0575C3.53 16.7254 2.79688 14.9573 2.79688 13.0778C2.79688 11.1973 3.53 9.42833 4.85969 8.09739C6.19117 6.76734 7.9602 6.03439 9.84152 6.03439C11.3504 6.03439 12.8066 6.51686 14.0115 7.4028C13.6879 7.98733 13.4374 8.53178 13.2547 9.05072C13.0898 9.51917 13.3355 10.0328 13.8035 10.1978C13.9022 10.2327 14.003 10.2492 14.102 10.2492C14.4724 10.2492 14.8192 10.0182 14.9494 9.64854C15.161 9.04739 15.9988 7.56264 16.0152 7.52562C17.9317 4.56284 21.1617 2.79867 24.6907 2.79867C27.9744 2.79867 30.9801 4.30472 32.9525 6.93319C32.9609 6.94604 34.0975 8.72144 34.4038 9.56921C34.5361 9.93523 34.8811 10.1629 35.2487 10.1629C35.3501 10.1629 35.4533 10.1456 35.5542 10.109C36.0207 9.94008 36.2622 9.42447 36.0934 8.95737C35.8324 8.23503 35.4693 7.50415 35.013 6.77507C35.9848 6.2891 37.0564 6.03439 38.1583 6.03439C40.0396 6.03439 41.8086 6.76734 43.1401 8.09739C44.4698 9.42833 45.202 11.1973 45.2029 13.0778C45.2047 16.8208 42.2785 19.9099 38.5418 20.1105C38.5179 20.1117 38.2367 20.1105 38.1053 20.1105C36.9163 20.1105 35.7979 19.8038 34.6864 19.1726C34.2549 18.9276 33.7064 19.0792 33.4616 19.5111C33.2168 19.9431 33.3683 20.4921 33.7999 20.7371C35.0219 21.4309 36.3068 21.8187 37.6257 21.8944L37.1395 28.6836C37.1043 29.1781 37.4773 29.6089 37.9714 29.645C37.993 29.6468 38.0145 29.6477 38.0361 29.6477C38.5042 29.6477 38.8987 29.2807 38.9319 28.8122L39.4323 21.8272C41.5149 21.5269 43.4285 20.4845 44.8193 18.8909C45.5084 18.1031 46.0457 17.2101 46.4186 16.2362C46.804 15.2289 46.9999 14.1659 46.9999 13.0778C47 11.8835 46.7655 10.7251 46.3046 9.63524ZM36.0923 43.3165L35.9573 45.2013H12.9061L12.7711 43.3165H36.0923Z" fill="url(#paint1_linear)"/>
<path d="M37.7474 33.6838C38.2435 33.6838 38.6458 33.2816 38.6458 32.7854C38.6458 32.2892 38.2435 31.887 37.7474 31.887C37.2512 31.887 36.8489 32.2892 36.8489 32.7854C36.8489 33.2816 37.2512 33.6838 37.7474 33.6838Z" stroke="url(#paint2_linear)" stroke-width="1.2"/>
<path d="M46.3046 9.63524C45.859 8.58218 45.222 7.63694 44.4098 6.82484C43.5985 6.01364 42.6524 5.37602 41.5995 4.93084C40.5097 4.4695 39.3525 4.23563 38.1585 4.23563H38.1566C37.4109 4.23563 36.6688 4.32916 35.9509 4.51352C35.2556 4.69249 34.5827 4.9569 33.9501 5.29956C31.6412 2.5675 28.2657 1 24.6908 1C23.7142 1 22.7439 1.11599 21.8041 1.34617C20.8913 1.56925 20.0037 1.90014 19.1664 2.33005C18.3443 2.75186 17.5681 3.26891 16.861 3.86781C16.1584 4.46321 15.5223 5.13946 14.9724 5.876C14.2403 5.35347 13.437 4.94791 12.5835 4.67003C11.7003 4.38127 10.7785 4.23563 9.84323 4.23563H9.84143C8.64741 4.23563 7.49022 4.4695 6.40033 4.93084C5.34736 5.37602 4.4013 6.01364 3.59011 6.82484C2.77792 7.63694 2.13994 8.58209 1.6953 9.63524C1.2344 10.7251 1 11.8835 1 13.0778C1 15.3693 1.87409 17.5428 3.45902 19.1959C4.23078 20.0007 5.13281 20.6447 6.14086 21.1096C7.17954 21.589 8.28813 21.8579 9.43633 21.9101L11.174 46.1646C11.1902 46.3931 11.2908 46.6035 11.4578 46.759C11.6241 46.9146 11.8415 47.0001 12.0697 47.0001H36.7938C37.022 47.0001 37.2394 46.9146 37.4057 46.759C37.5727 46.6034 37.6733 46.393 37.6896 46.1646L38.3543 36.8855C38.3714 36.6453 38.2941 36.4142 38.1369 36.2326C37.9797 36.0509 37.7614 35.9412 37.5224 35.9241C37.5008 35.9223 37.4784 35.9214 37.4569 35.9214C36.9887 35.9214 36.5962 36.2883 36.562 36.7559L36.2211 41.518H30.8518L31.0597 38.5429C31.0943 38.0474 30.721 37.6177 30.2261 37.583C29.7313 37.5479 29.3018 37.9219 29.2672 38.4174L29.0506 41.518H19.7762L19.5596 38.4174C19.525 37.922 19.0962 37.5481 18.6007 37.583C18.1056 37.6177 17.7324 38.0474 17.7671 38.5429L17.9749 41.518H12.6797C12.6671 41.518 12.6548 41.5194 12.6423 41.5199L11.2296 21.7974C12.1364 21.637 13.0604 21.3245 13.9045 20.8869C14.3451 20.6584 14.5174 20.1158 14.2891 19.6747C14.0609 19.2339 13.5191 19.0614 13.0781 19.2898C12.1689 19.7612 11.1541 20.0523 10.2182 20.1108C10.0887 20.1169 9.96245 20.1205 9.84152 20.1205C7.9602 20.1205 6.19117 19.3875 4.85969 18.0575C3.53 16.7254 2.79688 14.9573 2.79688 13.0778C2.79688 11.1973 3.53 9.42833 4.85969 8.09739C6.19117 6.76734 7.9602 6.03439 9.84152 6.03439C11.3504 6.03439 12.8066 6.51686 14.0115 7.4028C13.6879 7.98733 13.4374 8.53178 13.2547 9.05072C13.0898 9.51917 13.3355 10.0328 13.8035 10.1978C13.9022 10.2327 14.003 10.2492 14.102 10.2492C14.4724 10.2492 14.8192 10.0182 14.9494 9.64854C15.161 9.04739 15.9988 7.56264 16.0152 7.52562C17.9317 4.56284 21.1617 2.79867 24.6907 2.79867C27.9744 2.79867 30.9801 4.30472 32.9525 6.93319C32.9609 6.94604 34.0975 8.72144 34.4038 9.56921C34.5361 9.93523 34.8811 10.1629 35.2487 10.1629C35.3501 10.1629 35.4533 10.1456 35.5542 10.109C36.0207 9.94008 36.2622 9.42447 36.0934 8.95737C35.8324 8.23503 35.4693 7.50415 35.013 6.77507C35.9848 6.2891 37.0564 6.03439 38.1583 6.03439C40.0396 6.03439 41.8086 6.76734 43.1401 8.09739C44.4698 9.42833 45.202 11.1973 45.2029 13.0778C45.2047 16.8208 42.2785 19.9099 38.5418 20.1105C38.5179 20.1117 38.2367 20.1105 38.1053 20.1105C36.9163 20.1105 35.7979 19.8038 34.6864 19.1726C34.2549 18.9276 33.7064 19.0792 33.4616 19.5111C33.2168 19.9431 33.3683 20.4921 33.7999 20.7371C35.0219 21.4309 36.3068 21.8187 37.6257 21.8944L37.1395 28.6836C37.1043 29.1781 37.4773 29.6089 37.9714 29.645C37.993 29.6468 38.0145 29.6477 38.0361 29.6477C38.5042 29.6477 38.8987 29.2807 38.9319 28.8122L39.4323 21.8272C41.5149 21.5269 43.4285 20.4845 44.8193 18.8909C45.5084 18.1031 46.0457 17.2101 46.4186 16.2362C46.804 15.2289 46.9999 14.1659 46.9999 13.0778C47 11.8835 46.7655 10.7251 46.3046 9.63524ZM36.0923 43.3165L35.9573 45.2013H12.9061L12.7711 43.3165H36.0923Z" stroke="url(#paint3_linear)" stroke-width="1.2"/>
<defs>
<linearGradient id="paint0_linear" x1="0.999999" y1="47.001" x2="47.0017" y2="46.9974" gradientUnits="userSpaceOnUse">
<stop stop-color="#ED4924"/>
<stop offset="1" stop-color="#F17322"/>
</linearGradient>
<linearGradient id="paint1_linear" x1="0.999999" y1="47.001" x2="47.0017" y2="46.9974" gradientUnits="userSpaceOnUse">
<stop stop-color="#ED4924"/>
<stop offset="1" stop-color="#F17322"/>
</linearGradient>
<linearGradient id="paint2_linear" x1="0.999999" y1="47.001" x2="47.0017" y2="46.9974" gradientUnits="userSpaceOnUse">
<stop stop-color="#ED4924"/>
<stop offset="1" stop-color="#F17322"/>
</linearGradient>
<linearGradient id="paint3_linear" x1="0.999999" y1="47.001" x2="47.0017" y2="46.9974" gradientUnits="userSpaceOnUse">
<stop stop-color="#ED4924"/>
<stop offset="1" stop-color="#F17322"/>
</linearGradient>
</defs>
</svg>
