<svg width="46" height="46" viewBox="0 0 46 46" fill="none" xmlns="http://www.w3.org/2000/svg">
<path d="M39.5183 15.0257C39.0775 14.1149 39.4588 13.0183 40.3701 12.5774C41.2783 12.1356 42.3785 12.5161 42.8184 13.4292C44.2659 16.4173 45 19.6386 45 23C45 35.1302 35.1302 45 23 45C10.8698 45 1 35.1302 1 23C1 10.8698 10.8698 1 23 1C27.9544 1 32.8067 2.68742 36.6627 5.75208C37.4558 6.38184 37.5879 7.53573 36.9572 8.32796C36.3266 9.12065 35.1713 9.25269 34.3813 8.62203C31.1242 6.0345 27.189 4.66667 23 4.66667C12.8912 4.66667 4.66667 12.8912 4.66667 23C4.66667 33.1088 12.8912 41.3333 23 41.3333C33.1088 41.3333 41.3333 33.1088 41.3333 23C41.3333 20.1958 40.7228 17.5139 39.5183 15.0257Z" fill="url(#paint0_linear)"/>
<path d="M21.1666 10.1667C21.1666 9.15465 21.988 8.33332 23 8.33332C24.012 8.33332 24.8333 9.15465 24.8333 10.1667V21.1667H32.1666C33.1786 21.1667 34 21.988 34 23C34 24.012 33.1786 24.8333 32.1666 24.8333H23C21.988 24.8333 21.1666 24.012 21.1666 23V10.1667Z" fill="url(#paint1_linear)"/>
<path d="M39.5183 15.0257C39.0775 14.1149 39.4588 13.0183 40.3701 12.5774C41.2783 12.1356 42.3785 12.5161 42.8184 13.4292C44.2659 16.4173 45 19.6386 45 23C45 35.1302 35.1302 45 23 45C10.8698 45 1 35.1302 1 23C1 10.8698 10.8698 1 23 1C27.9544 1 32.8067 2.68742 36.6627 5.75208C37.4558 6.38184 37.5879 7.53573 36.9572 8.32796C36.3266 9.12065 35.1713 9.25269 34.3813 8.62203C31.1242 6.0345 27.189 4.66667 23 4.66667C12.8912 4.66667 4.66667 12.8912 4.66667 23C4.66667 33.1088 12.8912 41.3333 23 41.3333C33.1088 41.3333 41.3333 33.1088 41.3333 23C41.3333 20.1958 40.7228 17.5139 39.5183 15.0257Z" stroke="white" stroke-width="0.4"/>
<path d="M21.1666 10.1667C21.1666 9.15465 21.988 8.33332 23 8.33332C24.012 8.33332 24.8333 9.15465 24.8333 10.1667V21.1667H32.1666C33.1786 21.1667 34 21.988 34 23C34 24.012 33.1786 24.8333 32.1666 24.8333H23C21.988 24.8333 21.1666 24.012 21.1666 23V10.1667Z" stroke="white" stroke-width="0.4"/>
<defs>
<linearGradient id="paint0_linear" x1="0.999999" y1="45.0009" x2="45.0017" y2="44.9974" gradientUnits="userSpaceOnUse">
<stop stop-color="#ED4924"/>
<stop offset="1" stop-color="#F17322"/>
</linearGradient>
<linearGradient id="paint1_linear" x1="0.999999" y1="45.0009" x2="45.0017" y2="44.9974" gradientUnits="userSpaceOnUse">
<stop stop-color="#ED4924"/>
<stop offset="1" stop-color="#F17322"/>
</linearGradient>
</defs>
</svg>
