<svg width="39" height="41" viewBox="0 0 39 41" fill="none" xmlns="http://www.w3.org/2000/svg">
<path d="M17.3604 23.661V22.661V15.8466C17.3604 14.2827 16.0805 13.0071 14.5078 13.0071C12.9361 13.0071 11.6565 14.2824 11.6565 15.8466V22.6617V23.6617H10.6565H3.8401H3.83981C2.27215 23.6612 1 24.9325 1 26.5005C1 28.0692 2.27227 29.3406 3.8401 29.3406H10.6565H11.6565V30.3406V37.1563C11.6565 38.7205 12.9361 39.9958 14.5078 39.9958C16.0805 39.9958 17.3604 38.7201 17.3604 37.1563V30.34V29.3398L18.3606 29.34L25.1618 29.3412C25.1618 29.3412 25.1619 29.3412 25.162 29.3412C26.7288 29.3411 28.0005 28.0695 28.0006 26.5002L17.3604 23.661ZM17.3604 23.661H18.3604M17.3604 23.661H18.3604M18.3604 23.661H25.1618M18.3604 23.661H25.1618M25.1618 23.661C26.7285 23.661 28 24.932 28.0006 26.4999L25.1618 23.661Z" fill="url(#paint0_linear)" stroke="white" stroke-width="2"/>
<path d="M32.9297 6.08033V5.88033V2.11915C32.9297 1.06002 32.0644 0.2 31.0041 0.2C29.9443 0.2 29.0793 1.05996 29.0793 2.11915V5.88067V6.08067H28.8793H25.1186H25.1186C24.0595 6.08036 23.2 6.93951 23.2 7.99948C23.2 9.05981 24.0595 9.91898 25.1186 9.91898H28.8793H29.0793V10.119V13.8808C29.0793 14.94 29.9443 15.8 31.0041 15.8C32.0644 15.8 32.9297 14.94 32.9297 13.8808V10.1186V9.9186L33.1297 9.91864L36.8821 9.91933C36.8821 9.91933 36.8821 9.91933 36.8821 9.91933C37.941 9.91931 38.8 9.05965 38.8 7.9992L32.9297 6.08033ZM32.9297 6.08033H33.1297M32.9297 6.08033H33.1297M33.1297 6.08033H36.8821M33.1297 6.08033H36.8821M36.8821 6.08033C37.9407 6.08033 38.7997 6.93941 38.8 7.99914L36.8821 6.08033Z" fill="url(#paint1_linear)" stroke="white" stroke-width="0.4"/>
<defs>
<linearGradient id="paint0_linear" x1="-9.11969e-07" y1="40.9964" x2="29.0018" y2="40.9941" gradientUnits="userSpaceOnUse">
<stop stop-color="#ED4924"/>
<stop offset="1" stop-color="#F17322"/>
</linearGradient>
<linearGradient id="paint1_linear" x1="23" y1="16.0003" x2="39.0006" y2="15.9991" gradientUnits="userSpaceOnUse">
<stop stop-color="#ED4924"/>
<stop offset="1" stop-color="#F17322"/>
</linearGradient>
</defs>
</svg>
