<svg width="46" height="46" viewBox="0 0 46 46" fill="none" xmlns="http://www.w3.org/2000/svg">
<path d="M25.75 31.9375H28.5C29.2594 31.9375 29.875 32.5532 29.875 33.3125C29.875 34.0718 29.2594 34.6875 28.5 34.6875H25.75C21.0201 34.6875 16.9375 31.8632 15.0999 27.8125H13.375C12.6156 27.8125 12 27.1968 12 26.4375C12 25.6782 12.6156 25.0625 13.375 25.0625H14.2448C14.1251 24.3928 14.0625 23.7036 14.0625 23C14.0625 22.2964 14.1251 21.6072 14.2448 20.9375H13.375C12.6156 20.9375 12 20.3218 12 19.5625C12 18.8032 12.6156 18.1875 13.375 18.1875H15.0999C16.9375 14.1368 21.0201 11.3125 25.75 11.3125H27.8125C28.5719 11.3125 29.1875 11.9282 29.1875 12.6875C29.1875 13.4468 28.5719 14.0625 27.8125 14.0625H25.75C22.5924 14.0625 19.812 15.7085 18.2217 18.1875H24.375C25.1344 18.1875 25.75 18.8032 25.75 19.5625C25.75 20.3218 25.1344 20.9375 24.375 20.9375H17.0531C16.8961 21.5998 16.8125 22.2903 16.8125 23C16.8125 23.7097 16.896 24.4002 17.0531 25.0625H24.375C25.1344 25.0625 25.75 25.6782 25.75 26.4375C25.75 27.1968 25.1344 27.8125 24.375 27.8125H18.2217C19.812 30.2915 22.5924 31.9375 25.75 31.9375Z" fill="url(#paint0_linear)"/>
<path fill-rule="evenodd" clip-rule="evenodd" d="M7.44359 38.5564C11.5988 42.7117 17.1236 45 23 45C28.8764 45 34.4012 42.7117 38.5564 38.5564C42.7116 34.4011 45 28.8764 45 23C45 17.1236 42.7117 11.5988 38.5564 7.44359C34.4012 3.28834 28.8764 1 23 1C17.1236 1 11.5988 3.28826 7.44359 7.44359C3.28843 11.5989 1 17.1236 1 23C1 28.8764 3.28834 34.4012 7.44359 38.5564ZM3.75 23C3.75 12.3855 12.3855 3.75 23 3.75C33.6145 3.75 42.25 12.3855 42.25 23C42.25 33.6145 33.6145 42.25 23 42.25C12.3855 42.25 3.75 33.6145 3.75 23Z" fill="url(#paint1_linear)"/>
<path d="M25.75 31.9375H28.5C29.2594 31.9375 29.875 32.5532 29.875 33.3125C29.875 34.0718 29.2594 34.6875 28.5 34.6875H25.75C21.0201 34.6875 16.9375 31.8632 15.0999 27.8125H13.375C12.6156 27.8125 12 27.1968 12 26.4375C12 25.6782 12.6156 25.0625 13.375 25.0625H14.2448C14.1251 24.3928 14.0625 23.7036 14.0625 23C14.0625 22.2964 14.1251 21.6072 14.2448 20.9375H13.375C12.6156 20.9375 12 20.3218 12 19.5625C12 18.8032 12.6156 18.1875 13.375 18.1875H15.0999C16.9375 14.1368 21.0201 11.3125 25.75 11.3125H27.8125C28.5719 11.3125 29.1875 11.9282 29.1875 12.6875C29.1875 13.4468 28.5719 14.0625 27.8125 14.0625H25.75C22.5924 14.0625 19.812 15.7085 18.2217 18.1875H24.375C25.1344 18.1875 25.75 18.8032 25.75 19.5625C25.75 20.3218 25.1344 20.9375 24.375 20.9375H17.0531C16.8961 21.5998 16.8125 22.2903 16.8125 23C16.8125 23.7097 16.896 24.4002 17.0531 25.0625H24.375C25.1344 25.0625 25.75 25.6782 25.75 26.4375C25.75 27.1968 25.1344 27.8125 24.375 27.8125H18.2217C19.812 30.2915 22.5924 31.9375 25.75 31.9375Z" stroke="url(#paint2_linear)" stroke-width="0.2"/>
<path fill-rule="evenodd" clip-rule="evenodd" d="M7.44359 38.5564C11.5988 42.7117 17.1236 45 23 45C28.8764 45 34.4012 42.7117 38.5564 38.5564C42.7116 34.4011 45 28.8764 45 23C45 17.1236 42.7117 11.5988 38.5564 7.44359C34.4012 3.28834 28.8764 1 23 1C17.1236 1 11.5988 3.28826 7.44359 7.44359C3.28843 11.5989 1 17.1236 1 23C1 28.8764 3.28834 34.4012 7.44359 38.5564ZM3.75 23C3.75 12.3855 12.3855 3.75 23 3.75C33.6145 3.75 42.25 12.3855 42.25 23C42.25 33.6145 33.6145 42.25 23 42.25C12.3855 42.25 3.75 33.6145 3.75 23Z" stroke="url(#paint3_linear)" stroke-width="0.2"/>
<defs>
<linearGradient id="paint0_linear" x1="0.999999" y1="45.0009" x2="45.0017" y2="44.9974" gradientUnits="userSpaceOnUse">
<stop stop-color="#ED4924"/>
<stop offset="1" stop-color="#F17322"/>
</linearGradient>
<linearGradient id="paint1_linear" x1="0.999999" y1="45.0009" x2="45.0017" y2="44.9974" gradientUnits="userSpaceOnUse">
<stop stop-color="#ED4924"/>
<stop offset="1" stop-color="#F17322"/>
</linearGradient>
<linearGradient id="paint2_linear" x1="0.999999" y1="45.0009" x2="45.0017" y2="44.9974" gradientUnits="userSpaceOnUse">
<stop stop-color="#ED4924"/>
<stop offset="1" stop-color="#F17322"/>
</linearGradient>
<linearGradient id="paint3_linear" x1="0.999999" y1="45.0009" x2="45.0017" y2="44.9974" gradientUnits="userSpaceOnUse">
<stop stop-color="#ED4924"/>
<stop offset="1" stop-color="#F17322"/>
</linearGradient>
</defs>
</svg>
