<svg width="54" height="36" viewBox="0 0 54 36" fill="none" xmlns="http://www.w3.org/2000/svg">
<path fill-rule="evenodd" clip-rule="evenodd" d="M19.0868 8.93334C19.0868 4.55862 22.6364 1 26.9999 1C31.3634 1 34.9129 4.55873 34.9129 8.93334C34.9129 13.308 31.3634 16.8667 26.9999 16.8667C22.6363 16.8667 19.0868 13.3081 19.0868 8.93334ZM21.3477 8.93334C21.3477 12.0568 23.8844 14.6 26.9999 14.6C30.1154 14.6 32.652 12.0568 32.652 8.93334C32.652 5.80992 30.1153 3.26673 26.9999 3.26673C23.8844 3.26673 21.3477 5.80992 21.3477 8.93334Z" fill="url(#paint0_linear)"/>
<path fill-rule="evenodd" clip-rule="evenodd" d="M37.1739 15.7333C37.1739 12.6099 39.7106 10.0667 42.826 10.0667C45.9415 10.0667 48.4782 12.6099 48.4782 15.7333C48.4782 18.8568 45.9415 21.4 42.826 21.4C39.7106 21.4 37.1739 18.8568 37.1739 15.7333ZM39.4347 15.7333C39.4347 17.6079 40.9563 19.1333 42.826 19.1333C44.6957 19.1333 46.2173 17.6079 46.2173 15.7333C46.2173 13.8588 44.6958 12.3333 42.826 12.3333C40.9563 12.3333 39.4347 13.8588 39.4347 15.7333Z" fill="url(#paint1_linear)"/>
<path fill-rule="evenodd" clip-rule="evenodd" d="M11.3344 10.0667C8.21667 10.0667 5.68232 12.6099 5.68232 15.7333C5.68232 18.8568 8.21901 21.4 11.3344 21.4C14.4499 21.4 16.9866 18.8568 16.9866 15.7333C16.9866 12.6099 14.4521 10.0667 11.3344 10.0667ZM11.3344 19.1333C9.46467 19.1333 7.94315 17.6079 7.94315 15.7333C7.94315 13.8588 9.46467 12.3333 11.3344 12.3333C13.2042 12.3333 14.7257 13.8588 14.7257 15.7333C14.7257 17.6079 13.2041 19.1333 11.3344 19.1333Z" fill="url(#paint2_linear)"/>
<path d="M15.5411 24.652C18.2368 21.2893 22.372 19.1333 26.9999 19.1333C31.628 19.1333 35.7634 21.2895 38.4591 24.6525C39.8182 24.0055 41.3094 23.6666 42.826 23.6666C48.4352 23.6666 52.9999 28.243 53 33.8666C53 34.4922 52.4935 35 51.8695 35C51.2455 35 50.7391 34.4922 50.7391 33.8666C50.7391 29.4919 47.1894 25.9333 42.826 25.9333C41.7642 25.9333 40.7206 26.145 39.7539 26.5533C40.9889 28.7096 41.6955 31.2069 41.6955 33.8666C41.6955 34.4922 41.1891 35 40.5651 35C39.9411 35 39.4346 34.4922 39.4346 33.8666C39.4346 26.9919 33.8571 21.4001 26.9999 21.4001C20.1427 21.4001 14.5652 26.9919 14.5652 33.8666C14.5652 34.4922 14.0587 35 13.4347 35C12.8107 35 12.3042 34.4922 12.3042 33.8666C12.3042 31.2068 13.011 28.7092 14.2461 26.5528C13.28 26.1451 12.2361 25.9333 11.1739 25.9333C6.81045 25.9333 3.26083 29.4919 3.26093 33.8666C3.26093 34.4922 2.75447 35 2.13047 35C1.50647 35 1 34.4922 1 33.8666C1 28.243 5.56468 23.6666 11.1739 23.6666C12.6912 23.6666 14.1828 24.0057 15.5411 24.652Z" fill="url(#paint3_linear)"/>
<path fill-rule="evenodd" clip-rule="evenodd" d="M19.0868 8.93334C19.0868 4.55862 22.6364 1 26.9999 1C31.3634 1 34.9129 4.55873 34.9129 8.93334C34.9129 13.308 31.3634 16.8667 26.9999 16.8667C22.6363 16.8667 19.0868 13.3081 19.0868 8.93334ZM21.3477 8.93334C21.3477 12.0568 23.8844 14.6 26.9999 14.6C30.1154 14.6 32.652 12.0568 32.652 8.93334C32.652 5.80992 30.1153 3.26673 26.9999 3.26673C23.8844 3.26673 21.3477 5.80992 21.3477 8.93334Z" stroke="url(#paint4_linear)" stroke-width="0.6"/>
<path fill-rule="evenodd" clip-rule="evenodd" d="M37.1739 15.7333C37.1739 12.6099 39.7106 10.0667 42.826 10.0667C45.9415 10.0667 48.4782 12.6099 48.4782 15.7333C48.4782 18.8568 45.9415 21.4 42.826 21.4C39.7106 21.4 37.1739 18.8568 37.1739 15.7333ZM39.4347 15.7333C39.4347 17.6079 40.9563 19.1333 42.826 19.1333C44.6957 19.1333 46.2173 17.6079 46.2173 15.7333C46.2173 13.8588 44.6958 12.3333 42.826 12.3333C40.9563 12.3333 39.4347 13.8588 39.4347 15.7333Z" stroke="url(#paint5_linear)" stroke-width="0.6"/>
<path fill-rule="evenodd" clip-rule="evenodd" d="M11.3344 10.0667C8.21667 10.0667 5.68232 12.6099 5.68232 15.7333C5.68232 18.8568 8.21901 21.4 11.3344 21.4C14.4499 21.4 16.9866 18.8568 16.9866 15.7333C16.9866 12.6099 14.4521 10.0667 11.3344 10.0667ZM11.3344 19.1333C9.46467 19.1333 7.94315 17.6079 7.94315 15.7333C7.94315 13.8588 9.46467 12.3333 11.3344 12.3333C13.2042 12.3333 14.7257 13.8588 14.7257 15.7333C14.7257 17.6079 13.2041 19.1333 11.3344 19.1333Z" stroke="url(#paint6_linear)" stroke-width="0.6"/>
<path d="M15.5411 24.652C18.2368 21.2893 22.372 19.1333 26.9999 19.1333C31.628 19.1333 35.7634 21.2895 38.4591 24.6525C39.8182 24.0055 41.3094 23.6666 42.826 23.6666C48.4352 23.6666 52.9999 28.243 53 33.8666C53 34.4922 52.4935 35 51.8695 35C51.2455 35 50.7391 34.4922 50.7391 33.8666C50.7391 29.4919 47.1894 25.9333 42.826 25.9333C41.7642 25.9333 40.7206 26.145 39.7539 26.5533C40.9889 28.7096 41.6955 31.2069 41.6955 33.8666C41.6955 34.4922 41.1891 35 40.5651 35C39.9411 35 39.4346 34.4922 39.4346 33.8666C39.4346 26.9919 33.8571 21.4001 26.9999 21.4001C20.1427 21.4001 14.5652 26.9919 14.5652 33.8666C14.5652 34.4922 14.0587 35 13.4347 35C12.8107 35 12.3042 34.4922 12.3042 33.8666C12.3042 31.2068 13.011 28.7092 14.2461 26.5528C13.28 26.1451 12.2361 25.9333 11.1739 25.9333C6.81045 25.9333 3.26083 29.4919 3.26093 33.8666C3.26093 34.4922 2.75447 35 2.13047 35C1.50647 35 1 34.4922 1 33.8666C1 28.243 5.56468 23.6666 11.1739 23.6666C12.6912 23.6666 14.1828 24.0057 15.5411 24.652Z" stroke="url(#paint7_linear)" stroke-width="0.6"/>
<defs>
<linearGradient id="paint0_linear" x1="0.999998" y1="35.0007" x2="53.002" y2="34.9945" gradientUnits="userSpaceOnUse">
<stop stop-color="#ED4924"/>
<stop offset="1" stop-color="#F17322"/>
</linearGradient>
<linearGradient id="paint1_linear" x1="0.999998" y1="35.0007" x2="53.002" y2="34.9945" gradientUnits="userSpaceOnUse">
<stop stop-color="#ED4924"/>
<stop offset="1" stop-color="#F17322"/>
</linearGradient>
<linearGradient id="paint2_linear" x1="0.999998" y1="35.0007" x2="53.002" y2="34.9945" gradientUnits="userSpaceOnUse">
<stop stop-color="#ED4924"/>
<stop offset="1" stop-color="#F17322"/>
</linearGradient>
<linearGradient id="paint3_linear" x1="0.999998" y1="35.0007" x2="53.002" y2="34.9945" gradientUnits="userSpaceOnUse">
<stop stop-color="#ED4924"/>
<stop offset="1" stop-color="#F17322"/>
</linearGradient>
<linearGradient id="paint4_linear" x1="0.999998" y1="35.0007" x2="53.002" y2="34.9945" gradientUnits="userSpaceOnUse">
<stop stop-color="#ED4924"/>
<stop offset="1" stop-color="#F17322"/>
</linearGradient>
<linearGradient id="paint5_linear" x1="0.999998" y1="35.0007" x2="53.002" y2="34.9945" gradientUnits="userSpaceOnUse">
<stop stop-color="#ED4924"/>
<stop offset="1" stop-color="#F17322"/>
</linearGradient>
<linearGradient id="paint6_linear" x1="0.999998" y1="35.0007" x2="53.002" y2="34.9945" gradientUnits="userSpaceOnUse">
<stop stop-color="#ED4924"/>
<stop offset="1" stop-color="#F17322"/>
</linearGradient>
<linearGradient id="paint7_linear" x1="0.999998" y1="35.0007" x2="53.002" y2="34.9945" gradientUnits="userSpaceOnUse">
<stop stop-color="#ED4924"/>
<stop offset="1" stop-color="#F17322"/>
</linearGradient>
</defs>
</svg>
