<svg width="53" height="53" viewBox="0 0 53 53" fill="none" xmlns="http://www.w3.org/2000/svg">
<mask id="path-1-inside-1" fill="white">
<path d="M51.4473 24.9473H48.9503C48.6051 19.9083 46.595 15.3199 43.4657 11.7301L44.6773 10.5184C44.9125 10.6505 45.1743 10.7181 45.4366 10.7181C45.834 10.7181 46.2314 10.5665 46.5345 10.2633C47.0379 9.75997 47.122 8.99758 46.7897 8.40599L47.7271 7.46865C48.3335 6.86236 48.3335 5.87917 47.7271 5.27278C47.1208 4.66648 46.1376 4.66648 45.5312 5.27278L44.5938 6.21021C44.0022 5.87803 43.2399 5.96209 42.7366 6.46538C42.2332 6.96867 42.1492 7.73107 42.4815 8.32266L41.2698 9.53431C37.6801 6.40503 33.0917 4.39476 28.0527 4.04974V1.55273C28.0527 0.695211 27.3575 0 26.5 0C25.6425 0 24.9473 0.695211 24.9473 1.55273V4.04974C19.9083 4.39486 15.3199 6.40503 11.7301 9.53431L10.5184 8.32266C10.8507 7.73107 10.7667 6.96867 10.2633 6.46538C9.75997 5.96209 8.99758 5.87803 8.40609 6.21021L7.46865 5.27278C6.86236 4.66648 5.87917 4.66648 5.27278 5.27278C4.66638 5.87907 4.66638 6.86226 5.27278 7.46865L6.21021 8.40599C5.87793 8.99758 5.96198 9.75997 6.46538 10.2633C6.76858 10.5665 7.16597 10.7181 7.56327 10.7181C7.82557 10.7181 8.08737 10.6506 8.32255 10.5184L9.5342 11.7301C6.40503 15.3199 4.39486 19.9083 4.04974 24.9473H1.55273C0.695211 24.9473 0 25.6425 0 26.5C0 27.3575 0.695211 28.0527 1.55273 28.0527H4.04974C4.39486 33.0917 6.40503 37.6801 9.53431 41.2699L8.32266 42.4816C7.73107 42.1494 6.96878 42.2334 6.46548 42.7367C5.96209 43.24 5.87803 44.0024 6.21032 44.594L5.27288 45.5313C4.66648 46.1376 4.66648 47.1208 5.27288 47.7272C5.57608 48.0304 5.97347 48.1821 6.37077 48.1821C6.76806 48.1821 7.16556 48.0304 7.46865 47.7272L8.40609 46.7898C8.64128 46.9219 8.90307 46.9895 9.16538 46.9895C9.56277 46.9895 9.96017 46.8378 10.2633 46.5346C10.7667 46.0313 10.8507 45.2689 10.5184 44.6773L11.7301 43.4657C15.3199 46.5949 19.9082 48.6051 24.9473 48.9503V51.4473C24.9473 52.3048 25.6425 53 26.5 53C27.3575 53 28.0527 52.3048 28.0527 51.4473V48.9503C33.0917 48.6051 37.6801 46.595 41.2699 43.4657L42.4816 44.6773C42.1493 45.2689 42.2333 46.0313 42.7367 46.5346C43.0399 46.8378 43.4373 46.9895 43.8346 46.9895C44.0969 46.9895 44.3587 46.922 44.5939 46.7898L45.5313 47.7272C45.8345 48.0304 46.2319 48.1821 46.6292 48.1821C47.0265 48.1821 47.424 48.0304 47.7271 47.7272C48.3335 47.1209 48.3335 46.1377 47.7271 45.5313L46.7897 44.594C47.122 44.0024 47.0379 43.24 46.5345 42.7367C46.0312 42.2334 45.2688 42.1494 44.6773 42.4816L43.4657 41.2699C46.5949 37.6801 48.6051 33.0917 48.9503 28.0527H51.4473C52.3048 28.0527 53 27.3575 53 26.5C53 25.6425 52.3048 24.9473 51.4473 24.9473ZM26.5 45.8993C15.8031 45.8993 7.10065 37.1969 7.10065 26.5C7.10065 15.8031 15.8031 7.10065 26.5 7.10065C37.1969 7.10065 45.8993 15.8031 45.8993 26.5C45.8993 37.1969 37.1969 45.8993 26.5 45.8993Z"/>
<path d="M26.5 9.5727C17.1662 9.5727 9.5727 17.1662 9.5727 26.5C9.5727 35.8338 17.1662 43.4273 26.5 43.4273C35.8338 43.4273 43.4273 35.8338 43.4273 26.5C43.4273 17.1662 35.8338 9.5727 26.5 9.5727ZM40.2341 24.9473H33.6147C33.4274 24.0884 33.088 23.2862 32.6265 22.5694L37.3049 17.8909C38.8874 19.8729 39.9365 22.2979 40.2341 24.9473ZM28.0527 12.7658C30.7021 13.0635 33.1272 14.1126 35.1091 15.695L30.4306 20.3735C29.7137 19.9119 28.9116 19.5725 28.0527 19.3853V12.7658ZM24.9473 12.7658V19.3853C24.0884 19.5725 23.2862 19.9119 22.5694 20.3735L17.8909 15.695C19.8728 14.1126 22.2979 13.0635 24.9473 12.7658ZM15.6951 17.8909L20.3735 22.5694C19.9119 23.2863 19.5725 24.0884 19.3853 24.9473H12.7659C13.0636 22.2979 14.1127 19.8728 15.6951 17.8909ZM12.7658 28.0527H19.3853C19.5726 28.9116 19.9119 29.7137 20.3735 30.4306L15.695 35.1091C14.1126 33.1271 13.0635 30.7021 12.7658 28.0527ZM24.9473 40.2341C22.2979 39.9365 19.8728 38.8874 17.8909 37.3049L22.5694 32.6265C23.2862 33.088 24.0884 33.4275 24.9473 33.6147V40.2341ZM22.3224 26.5C22.3224 24.1965 24.1965 22.3224 26.5 22.3224C28.8035 22.3224 30.6776 24.1965 30.6776 26.5C30.6776 28.8035 28.8035 30.6776 26.5 30.6776C24.1965 30.6776 22.3224 28.8035 22.3224 26.5ZM28.0527 40.2341V33.6147C28.9116 33.4275 29.7137 33.088 30.4306 32.6265L35.1091 37.3049C33.1272 38.8874 30.7021 39.9365 28.0527 40.2341ZM37.3048 35.1091L32.6265 30.4306C33.088 29.7136 33.4275 28.9116 33.6147 28.0527H40.234C39.9364 30.7021 38.8873 33.1272 37.3048 35.1091Z"/>
</mask>
<path d="M51.4473 24.9473H48.9503C48.6051 19.9083 46.595 15.3199 43.4657 11.7301L44.6773 10.5184C44.9125 10.6505 45.1743 10.7181 45.4366 10.7181C45.834 10.7181 46.2314 10.5665 46.5345 10.2633C47.0379 9.75997 47.122 8.99758 46.7897 8.40599L47.7271 7.46865C48.3335 6.86236 48.3335 5.87917 47.7271 5.27278C47.1208 4.66648 46.1376 4.66648 45.5312 5.27278L44.5938 6.21021C44.0022 5.87803 43.2399 5.96209 42.7366 6.46538C42.2332 6.96867 42.1492 7.73107 42.4815 8.32266L41.2698 9.53431C37.6801 6.40503 33.0917 4.39476 28.0527 4.04974V1.55273C28.0527 0.695211 27.3575 0 26.5 0C25.6425 0 24.9473 0.695211 24.9473 1.55273V4.04974C19.9083 4.39486 15.3199 6.40503 11.7301 9.53431L10.5184 8.32266C10.8507 7.73107 10.7667 6.96867 10.2633 6.46538C9.75997 5.96209 8.99758 5.87803 8.40609 6.21021L7.46865 5.27278C6.86236 4.66648 5.87917 4.66648 5.27278 5.27278C4.66638 5.87907 4.66638 6.86226 5.27278 7.46865L6.21021 8.40599C5.87793 8.99758 5.96198 9.75997 6.46538 10.2633C6.76858 10.5665 7.16597 10.7181 7.56327 10.7181C7.82557 10.7181 8.08737 10.6506 8.32255 10.5184L9.5342 11.7301C6.40503 15.3199 4.39486 19.9083 4.04974 24.9473H1.55273C0.695211 24.9473 0 25.6425 0 26.5C0 27.3575 0.695211 28.0527 1.55273 28.0527H4.04974C4.39486 33.0917 6.40503 37.6801 9.53431 41.2699L8.32266 42.4816C7.73107 42.1494 6.96878 42.2334 6.46548 42.7367C5.96209 43.24 5.87803 44.0024 6.21032 44.594L5.27288 45.5313C4.66648 46.1376 4.66648 47.1208 5.27288 47.7272C5.57608 48.0304 5.97347 48.1821 6.37077 48.1821C6.76806 48.1821 7.16556 48.0304 7.46865 47.7272L8.40609 46.7898C8.64128 46.9219 8.90307 46.9895 9.16538 46.9895C9.56277 46.9895 9.96017 46.8378 10.2633 46.5346C10.7667 46.0313 10.8507 45.2689 10.5184 44.6773L11.7301 43.4657C15.3199 46.5949 19.9082 48.6051 24.9473 48.9503V51.4473C24.9473 52.3048 25.6425 53 26.5 53C27.3575 53 28.0527 52.3048 28.0527 51.4473V48.9503C33.0917 48.6051 37.6801 46.595 41.2699 43.4657L42.4816 44.6773C42.1493 45.2689 42.2333 46.0313 42.7367 46.5346C43.0399 46.8378 43.4373 46.9895 43.8346 46.9895C44.0969 46.9895 44.3587 46.922 44.5939 46.7898L45.5313 47.7272C45.8345 48.0304 46.2319 48.1821 46.6292 48.1821C47.0265 48.1821 47.424 48.0304 47.7271 47.7272C48.3335 47.1209 48.3335 46.1377 47.7271 45.5313L46.7897 44.594C47.122 44.0024 47.0379 43.24 46.5345 42.7367C46.0312 42.2334 45.2688 42.1494 44.6773 42.4816L43.4657 41.2699C46.5949 37.6801 48.6051 33.0917 48.9503 28.0527H51.4473C52.3048 28.0527 53 27.3575 53 26.5C53 25.6425 52.3048 24.9473 51.4473 24.9473ZM26.5 45.8993C15.8031 45.8993 7.10065 37.1969 7.10065 26.5C7.10065 15.8031 15.8031 7.10065 26.5 7.10065C37.1969 7.10065 45.8993 15.8031 45.8993 26.5C45.8993 37.1969 37.1969 45.8993 26.5 45.8993Z" fill="url(#paint0_linear)"/>
<path d="M26.5 9.5727C17.1662 9.5727 9.5727 17.1662 9.5727 26.5C9.5727 35.8338 17.1662 43.4273 26.5 43.4273C35.8338 43.4273 43.4273 35.8338 43.4273 26.5C43.4273 17.1662 35.8338 9.5727 26.5 9.5727ZM40.2341 24.9473H33.6147C33.4274 24.0884 33.088 23.2862 32.6265 22.5694L37.3049 17.8909C38.8874 19.8729 39.9365 22.2979 40.2341 24.9473ZM28.0527 12.7658C30.7021 13.0635 33.1272 14.1126 35.1091 15.695L30.4306 20.3735C29.7137 19.9119 28.9116 19.5725 28.0527 19.3853V12.7658ZM24.9473 12.7658V19.3853C24.0884 19.5725 23.2862 19.9119 22.5694 20.3735L17.8909 15.695C19.8728 14.1126 22.2979 13.0635 24.9473 12.7658ZM15.6951 17.8909L20.3735 22.5694C19.9119 23.2863 19.5725 24.0884 19.3853 24.9473H12.7659C13.0636 22.2979 14.1127 19.8728 15.6951 17.8909ZM12.7658 28.0527H19.3853C19.5726 28.9116 19.9119 29.7137 20.3735 30.4306L15.695 35.1091C14.1126 33.1271 13.0635 30.7021 12.7658 28.0527ZM24.9473 40.2341C22.2979 39.9365 19.8728 38.8874 17.8909 37.3049L22.5694 32.6265C23.2862 33.088 24.0884 33.4275 24.9473 33.6147V40.2341ZM22.3224 26.5C22.3224 24.1965 24.1965 22.3224 26.5 22.3224C28.8035 22.3224 30.6776 24.1965 30.6776 26.5C30.6776 28.8035 28.8035 30.6776 26.5 30.6776C24.1965 30.6776 22.3224 28.8035 22.3224 26.5ZM28.0527 40.2341V33.6147C28.9116 33.4275 29.7137 33.088 30.4306 32.6265L35.1091 37.3049C33.1272 38.8874 30.7021 39.9365 28.0527 40.2341ZM37.3048 35.1091L32.6265 30.4306C33.088 29.7136 33.4275 28.9116 33.6147 28.0527H40.234C39.9364 30.7021 38.8873 33.1272 37.3048 35.1091Z" fill="url(#paint1_linear)"/>
<path d="M51.4473 24.9473H48.9503C48.6051 19.9083 46.595 15.3199 43.4657 11.7301L44.6773 10.5184C44.9125 10.6505 45.1743 10.7181 45.4366 10.7181C45.834 10.7181 46.2314 10.5665 46.5345 10.2633C47.0379 9.75997 47.122 8.99758 46.7897 8.40599L47.7271 7.46865C48.3335 6.86236 48.3335 5.87917 47.7271 5.27278C47.1208 4.66648 46.1376 4.66648 45.5312 5.27278L44.5938 6.21021C44.0022 5.87803 43.2399 5.96209 42.7366 6.46538C42.2332 6.96867 42.1492 7.73107 42.4815 8.32266L41.2698 9.53431C37.6801 6.40503 33.0917 4.39476 28.0527 4.04974V1.55273C28.0527 0.695211 27.3575 0 26.5 0C25.6425 0 24.9473 0.695211 24.9473 1.55273V4.04974C19.9083 4.39486 15.3199 6.40503 11.7301 9.53431L10.5184 8.32266C10.8507 7.73107 10.7667 6.96867 10.2633 6.46538C9.75997 5.96209 8.99758 5.87803 8.40609 6.21021L7.46865 5.27278C6.86236 4.66648 5.87917 4.66648 5.27278 5.27278C4.66638 5.87907 4.66638 6.86226 5.27278 7.46865L6.21021 8.40599C5.87793 8.99758 5.96198 9.75997 6.46538 10.2633C6.76858 10.5665 7.16597 10.7181 7.56327 10.7181C7.82557 10.7181 8.08737 10.6506 8.32255 10.5184L9.5342 11.7301C6.40503 15.3199 4.39486 19.9083 4.04974 24.9473H1.55273C0.695211 24.9473 0 25.6425 0 26.5C0 27.3575 0.695211 28.0527 1.55273 28.0527H4.04974C4.39486 33.0917 6.40503 37.6801 9.53431 41.2699L8.32266 42.4816C7.73107 42.1494 6.96878 42.2334 6.46548 42.7367C5.96209 43.24 5.87803 44.0024 6.21032 44.594L5.27288 45.5313C4.66648 46.1376 4.66648 47.1208 5.27288 47.7272C5.57608 48.0304 5.97347 48.1821 6.37077 48.1821C6.76806 48.1821 7.16556 48.0304 7.46865 47.7272L8.40609 46.7898C8.64128 46.9219 8.90307 46.9895 9.16538 46.9895C9.56277 46.9895 9.96017 46.8378 10.2633 46.5346C10.7667 46.0313 10.8507 45.2689 10.5184 44.6773L11.7301 43.4657C15.3199 46.5949 19.9082 48.6051 24.9473 48.9503V51.4473C24.9473 52.3048 25.6425 53 26.5 53C27.3575 53 28.0527 52.3048 28.0527 51.4473V48.9503C33.0917 48.6051 37.6801 46.595 41.2699 43.4657L42.4816 44.6773C42.1493 45.2689 42.2333 46.0313 42.7367 46.5346C43.0399 46.8378 43.4373 46.9895 43.8346 46.9895C44.0969 46.9895 44.3587 46.922 44.5939 46.7898L45.5313 47.7272C45.8345 48.0304 46.2319 48.1821 46.6292 48.1821C47.0265 48.1821 47.424 48.0304 47.7271 47.7272C48.3335 47.1209 48.3335 46.1377 47.7271 45.5313L46.7897 44.594C47.122 44.0024 47.0379 43.24 46.5345 42.7367C46.0312 42.2334 45.2688 42.1494 44.6773 42.4816L43.4657 41.2699C46.5949 37.6801 48.6051 33.0917 48.9503 28.0527H51.4473C52.3048 28.0527 53 27.3575 53 26.5C53 25.6425 52.3048 24.9473 51.4473 24.9473ZM26.5 45.8993C15.8031 45.8993 7.10065 37.1969 7.10065 26.5C7.10065 15.8031 15.8031 7.10065 26.5 7.10065C37.1969 7.10065 45.8993 15.8031 45.8993 26.5C45.8993 37.1969 37.1969 45.8993 26.5 45.8993Z" stroke="white" stroke-width="0.4" mask="url(#path-1-inside-1)"/>
<path d="M26.5 9.5727C17.1662 9.5727 9.5727 17.1662 9.5727 26.5C9.5727 35.8338 17.1662 43.4273 26.5 43.4273C35.8338 43.4273 43.4273 35.8338 43.4273 26.5C43.4273 17.1662 35.8338 9.5727 26.5 9.5727ZM40.2341 24.9473H33.6147C33.4274 24.0884 33.088 23.2862 32.6265 22.5694L37.3049 17.8909C38.8874 19.8729 39.9365 22.2979 40.2341 24.9473ZM28.0527 12.7658C30.7021 13.0635 33.1272 14.1126 35.1091 15.695L30.4306 20.3735C29.7137 19.9119 28.9116 19.5725 28.0527 19.3853V12.7658ZM24.9473 12.7658V19.3853C24.0884 19.5725 23.2862 19.9119 22.5694 20.3735L17.8909 15.695C19.8728 14.1126 22.2979 13.0635 24.9473 12.7658ZM15.6951 17.8909L20.3735 22.5694C19.9119 23.2863 19.5725 24.0884 19.3853 24.9473H12.7659C13.0636 22.2979 14.1127 19.8728 15.6951 17.8909ZM12.7658 28.0527H19.3853C19.5726 28.9116 19.9119 29.7137 20.3735 30.4306L15.695 35.1091C14.1126 33.1271 13.0635 30.7021 12.7658 28.0527ZM24.9473 40.2341C22.2979 39.9365 19.8728 38.8874 17.8909 37.3049L22.5694 32.6265C23.2862 33.088 24.0884 33.4275 24.9473 33.6147V40.2341ZM22.3224 26.5C22.3224 24.1965 24.1965 22.3224 26.5 22.3224C28.8035 22.3224 30.6776 24.1965 30.6776 26.5C30.6776 28.8035 28.8035 30.6776 26.5 30.6776C24.1965 30.6776 22.3224 28.8035 22.3224 26.5ZM28.0527 40.2341V33.6147C28.9116 33.4275 29.7137 33.088 30.4306 32.6265L35.1091 37.3049C33.1272 38.8874 30.7021 39.9365 28.0527 40.2341ZM37.3048 35.1091L32.6265 30.4306C33.088 29.7136 33.4275 28.9116 33.6147 28.0527H40.234C39.9364 30.7021 38.8873 33.1272 37.3048 35.1091Z" stroke="white" stroke-width="0.4" mask="url(#path-1-inside-1)"/>
<defs>
<linearGradient id="paint0_linear" x1="-1.66667e-06" y1="53.001" x2="53.0021" y2="52.9969" gradientUnits="userSpaceOnUse">
<stop stop-color="#ED4924"/>
<stop offset="1" stop-color="#F17322"/>
</linearGradient>
<linearGradient id="paint1_linear" x1="-1.66667e-06" y1="53.001" x2="53.0021" y2="52.9969" gradientUnits="userSpaceOnUse">
<stop stop-color="#ED4924"/>
<stop offset="1" stop-color="#F17322"/>
</linearGradient>
</defs>
</svg>
