<svg width="47" height="41" viewBox="0 0 47 41" fill="none" xmlns="http://www.w3.org/2000/svg">
<path fill-rule="evenodd" clip-rule="evenodd" d="M41.3347 4.31745H38.5097V2.14002C38.5097 1.51301 37.9823 1 37.3376 1C36.6929 1 36.1654 1.51301 36.1654 2.14002V4.31745H24.678V2.14002C24.678 1.51301 24.1505 1 23.5058 1C22.8611 1 22.3337 1.51301 22.3337 2.14002V4.31745H10.7291V2.14002C10.7291 1.51301 10.2016 1 9.55691 1C8.91221 1 8.38473 1.51301 8.38473 2.14002V4.31745H5.67699C3.0982 4.31745 1 6.42648 1 8.93452V35.4399C1 37.9594 3.08648 40 5.67699 40H41.323C43.9135 40 46 37.9594 46 35.4513V8.93452C46.0117 6.42648 43.9135 4.31745 41.3347 4.31745ZM43.6673 35.4399C43.6673 36.694 42.6358 37.7086 41.3464 37.72H5.67699C4.3876 37.72 3.34436 36.7053 3.34436 35.4513V8.93452C3.34436 7.6691 4.3876 6.59749 5.67699 6.59749H8.38473V8.25051C8.38473 8.87752 8.91221 9.39053 9.55691 9.39053C10.2016 9.39053 10.7291 8.87752 10.7291 8.25051V6.59749H22.3337V8.25051C22.3337 8.87752 22.8611 9.39053 23.5058 9.39053C24.1505 9.39053 24.678 8.87752 24.678 8.25051V6.59749H36.1654V8.25051C36.1654 8.87752 36.6929 9.39053 37.3376 9.39053C37.9823 9.39053 38.5097 8.87752 38.5097 8.25051V6.59749H41.3347C42.6358 6.59749 43.6673 7.6805 43.6673 8.93452V35.4399Z" fill="url(#paint0_linear)"/>
<path d="M22.0638 16.2195C22.0638 17.2702 21.2065 18.122 20.1489 18.122C19.0914 18.122 18.234 17.2702 18.234 16.2195C18.234 15.1688 19.0914 14.3171 20.1489 14.3171C21.2065 14.3171 22.0638 15.1688 22.0638 16.2195Z" fill="url(#paint1_linear)"/>
<path d="M22.0638 23.8293C22.0638 24.88 21.2065 25.7317 20.1489 25.7317C19.0914 25.7317 18.234 24.88 18.234 23.8293C18.234 22.7786 19.0914 21.9268 20.1489 21.9268C21.2065 21.9268 22.0638 22.7786 22.0638 23.8293Z" fill="url(#paint2_linear)"/>
<path d="M14.4043 23.8293C14.4043 24.88 13.5469 25.7317 12.4894 25.7317C11.4318 25.7317 10.5745 24.88 10.5745 23.8293C10.5745 22.7786 11.4318 21.9268 12.4894 21.9268C13.5469 21.9268 14.4043 22.7786 14.4043 23.8293Z" fill="url(#paint3_linear)"/>
<path d="M14.4043 31.439C14.4043 32.4897 13.5469 33.3415 12.4894 33.3415C11.4318 33.3415 10.5745 32.4897 10.5745 31.439C10.5745 30.3883 11.4318 29.5366 12.4894 29.5366C13.5469 29.5366 14.4043 30.3883 14.4043 31.439Z" fill="url(#paint4_linear)"/>
<path d="M29.7234 16.2195C29.7234 17.2702 28.8661 18.122 27.8085 18.122C26.7509 18.122 25.8936 17.2702 25.8936 16.2195C25.8936 15.1688 26.7509 14.3171 27.8085 14.3171C28.8661 14.3171 29.7234 15.1688 29.7234 16.2195Z" fill="url(#paint5_linear)"/>
<path d="M29.7234 23.8293C29.7234 24.88 28.8661 25.7317 27.8085 25.7317C26.7509 25.7317 25.8936 24.88 25.8936 23.8293C25.8936 22.7786 26.7509 21.9268 27.8085 21.9268C28.8661 21.9268 29.7234 22.7786 29.7234 23.8293Z" fill="url(#paint6_linear)"/>
<path d="M22.0638 31.439C22.0638 32.4897 21.2065 33.3415 20.1489 33.3415C19.0914 33.3415 18.234 32.4897 18.234 31.439C18.234 30.3883 19.0914 29.5366 20.1489 29.5366C21.2065 29.5366 22.0638 30.3883 22.0638 31.439Z" fill="url(#paint7_linear)"/>
<path d="M37.383 16.2195C37.383 17.2702 36.5257 18.122 35.4681 18.122C34.4105 18.122 33.5532 17.2702 33.5532 16.2195C33.5532 15.1688 34.4105 14.3171 35.4681 14.3171C36.5257 14.3171 37.383 15.1688 37.383 16.2195Z" fill="url(#paint8_linear)"/>
<path d="M37.383 23.8293C37.383 24.88 36.5257 25.7317 35.4681 25.7317C34.4105 25.7317 33.5532 24.88 33.5532 23.8293C33.5532 22.7786 34.4105 21.9268 35.4681 21.9268C36.5257 21.9268 37.383 22.7786 37.383 23.8293Z" fill="url(#paint9_linear)"/>
<path d="M29.7234 31.439C29.7234 32.4897 28.8661 33.3415 27.8085 33.3415C26.7509 33.3415 25.8936 32.4897 25.8936 31.439C25.8936 30.3883 26.7509 29.5366 27.8085 29.5366C28.8661 29.5366 29.7234 30.3883 29.7234 31.439Z" fill="url(#paint10_linear)"/>
<path fill-rule="evenodd" clip-rule="evenodd" d="M41.3347 4.31745H38.5097V2.14002C38.5097 1.51301 37.9823 1 37.3376 1C36.6929 1 36.1654 1.51301 36.1654 2.14002V4.31745H24.678V2.14002C24.678 1.51301 24.1505 1 23.5058 1C22.8611 1 22.3337 1.51301 22.3337 2.14002V4.31745H10.7291V2.14002C10.7291 1.51301 10.2016 1 9.55691 1C8.91221 1 8.38473 1.51301 8.38473 2.14002V4.31745H5.67699C3.0982 4.31745 1 6.42648 1 8.93452V35.4399C1 37.9594 3.08648 40 5.67699 40H41.323C43.9135 40 46 37.9594 46 35.4513V8.93452C46.0117 6.42648 43.9135 4.31745 41.3347 4.31745ZM43.6673 35.4399C43.6673 36.694 42.6358 37.7086 41.3464 37.72H5.67699C4.3876 37.72 3.34436 36.7053 3.34436 35.4513V8.93452C3.34436 7.6691 4.3876 6.59749 5.67699 6.59749H8.38473V8.25051C8.38473 8.87752 8.91221 9.39053 9.55691 9.39053C10.2016 9.39053 10.7291 8.87752 10.7291 8.25051V6.59749H22.3337V8.25051C22.3337 8.87752 22.8611 9.39053 23.5058 9.39053C24.1505 9.39053 24.678 8.87752 24.678 8.25051V6.59749H36.1654V8.25051C36.1654 8.87752 36.6929 9.39053 37.3376 9.39053C37.9823 9.39053 38.5097 8.87752 38.5097 8.25051V6.59749H41.3347C42.6358 6.59749 43.6673 7.6805 43.6673 8.93452V35.4399Z" stroke="url(#paint11_linear)" stroke-width="0.2"/>
<path d="M22.0638 16.2195C22.0638 17.2702 21.2065 18.122 20.1489 18.122C19.0914 18.122 18.234 17.2702 18.234 16.2195C18.234 15.1688 19.0914 14.3171 20.1489 14.3171C21.2065 14.3171 22.0638 15.1688 22.0638 16.2195Z" stroke="url(#paint12_linear)" stroke-width="0.2"/>
<path d="M22.0638 23.8293C22.0638 24.88 21.2065 25.7317 20.1489 25.7317C19.0914 25.7317 18.234 24.88 18.234 23.8293C18.234 22.7786 19.0914 21.9268 20.1489 21.9268C21.2065 21.9268 22.0638 22.7786 22.0638 23.8293Z" stroke="url(#paint13_linear)" stroke-width="0.2"/>
<path d="M14.4043 23.8293C14.4043 24.88 13.5469 25.7317 12.4894 25.7317C11.4318 25.7317 10.5745 24.88 10.5745 23.8293C10.5745 22.7786 11.4318 21.9268 12.4894 21.9268C13.5469 21.9268 14.4043 22.7786 14.4043 23.8293Z" stroke="url(#paint14_linear)" stroke-width="0.2"/>
<path d="M14.4043 31.439C14.4043 32.4897 13.5469 33.3415 12.4894 33.3415C11.4318 33.3415 10.5745 32.4897 10.5745 31.439C10.5745 30.3883 11.4318 29.5366 12.4894 29.5366C13.5469 29.5366 14.4043 30.3883 14.4043 31.439Z" stroke="url(#paint15_linear)" stroke-width="0.2"/>
<path d="M29.7234 16.2195C29.7234 17.2702 28.8661 18.122 27.8085 18.122C26.7509 18.122 25.8936 17.2702 25.8936 16.2195C25.8936 15.1688 26.7509 14.3171 27.8085 14.3171C28.8661 14.3171 29.7234 15.1688 29.7234 16.2195Z" stroke="url(#paint16_linear)" stroke-width="0.2"/>
<path d="M29.7234 23.8293C29.7234 24.88 28.8661 25.7317 27.8085 25.7317C26.7509 25.7317 25.8936 24.88 25.8936 23.8293C25.8936 22.7786 26.7509 21.9268 27.8085 21.9268C28.8661 21.9268 29.7234 22.7786 29.7234 23.8293Z" stroke="url(#paint17_linear)" stroke-width="0.2"/>
<path d="M22.0638 31.439C22.0638 32.4897 21.2065 33.3415 20.1489 33.3415C19.0914 33.3415 18.234 32.4897 18.234 31.439C18.234 30.3883 19.0914 29.5366 20.1489 29.5366C21.2065 29.5366 22.0638 30.3883 22.0638 31.439Z" stroke="url(#paint18_linear)" stroke-width="0.2"/>
<path d="M37.383 16.2195C37.383 17.2702 36.5257 18.122 35.4681 18.122C34.4105 18.122 33.5532 17.2702 33.5532 16.2195C33.5532 15.1688 34.4105 14.3171 35.4681 14.3171C36.5257 14.3171 37.383 15.1688 37.383 16.2195Z" stroke="url(#paint19_linear)" stroke-width="0.2"/>
<path d="M37.383 23.8293C37.383 24.88 36.5257 25.7317 35.4681 25.7317C34.4105 25.7317 33.5532 24.88 33.5532 23.8293C33.5532 22.7786 34.4105 21.9268 35.4681 21.9268C36.5257 21.9268 37.383 22.7786 37.383 23.8293Z" stroke="url(#paint20_linear)" stroke-width="0.2"/>
<path d="M29.7234 31.439C29.7234 32.4897 28.8661 33.3415 27.8085 33.3415C26.7509 33.3415 25.8936 32.4897 25.8936 31.439C25.8936 30.3883 26.7509 29.5366 27.8085 29.5366C28.8661 29.5366 29.7234 30.3883 29.7234 31.439Z" stroke="url(#paint21_linear)" stroke-width="0.2"/>
<defs>
<linearGradient id="paint0_linear" x1="0.999999" y1="40.0008" x2="46.0017" y2="39.9967" gradientUnits="userSpaceOnUse">
<stop stop-color="#ED4924"/>
<stop offset="1" stop-color="#F17322"/>
</linearGradient>
<linearGradient id="paint1_linear" x1="0.999999" y1="40.0008" x2="46.0017" y2="39.9967" gradientUnits="userSpaceOnUse">
<stop stop-color="#ED4924"/>
<stop offset="1" stop-color="#F17322"/>
</linearGradient>
<linearGradient id="paint2_linear" x1="0.999999" y1="40.0008" x2="46.0017" y2="39.9967" gradientUnits="userSpaceOnUse">
<stop stop-color="#ED4924"/>
<stop offset="1" stop-color="#F17322"/>
</linearGradient>
<linearGradient id="paint3_linear" x1="0.999999" y1="40.0008" x2="46.0017" y2="39.9967" gradientUnits="userSpaceOnUse">
<stop stop-color="#ED4924"/>
<stop offset="1" stop-color="#F17322"/>
</linearGradient>
<linearGradient id="paint4_linear" x1="0.999999" y1="40.0008" x2="46.0017" y2="39.9967" gradientUnits="userSpaceOnUse">
<stop stop-color="#ED4924"/>
<stop offset="1" stop-color="#F17322"/>
</linearGradient>
<linearGradient id="paint5_linear" x1="0.999999" y1="40.0008" x2="46.0017" y2="39.9967" gradientUnits="userSpaceOnUse">
<stop stop-color="#ED4924"/>
<stop offset="1" stop-color="#F17322"/>
</linearGradient>
<linearGradient id="paint6_linear" x1="0.999999" y1="40.0008" x2="46.0017" y2="39.9967" gradientUnits="userSpaceOnUse">
<stop stop-color="#ED4924"/>
<stop offset="1" stop-color="#F17322"/>
</linearGradient>
<linearGradient id="paint7_linear" x1="0.999999" y1="40.0008" x2="46.0017" y2="39.9967" gradientUnits="userSpaceOnUse">
<stop stop-color="#ED4924"/>
<stop offset="1" stop-color="#F17322"/>
</linearGradient>
<linearGradient id="paint8_linear" x1="0.999999" y1="40.0008" x2="46.0017" y2="39.9967" gradientUnits="userSpaceOnUse">
<stop stop-color="#ED4924"/>
<stop offset="1" stop-color="#F17322"/>
</linearGradient>
<linearGradient id="paint9_linear" x1="0.999999" y1="40.0008" x2="46.0017" y2="39.9967" gradientUnits="userSpaceOnUse">
<stop stop-color="#ED4924"/>
<stop offset="1" stop-color="#F17322"/>
</linearGradient>
<linearGradient id="paint10_linear" x1="0.999999" y1="40.0008" x2="46.0017" y2="39.9967" gradientUnits="userSpaceOnUse">
<stop stop-color="#ED4924"/>
<stop offset="1" stop-color="#F17322"/>
</linearGradient>
<linearGradient id="paint11_linear" x1="0.999999" y1="40.0008" x2="46.0017" y2="39.9967" gradientUnits="userSpaceOnUse">
<stop stop-color="#ED4924"/>
<stop offset="1" stop-color="#F17322"/>
</linearGradient>
<linearGradient id="paint12_linear" x1="0.999999" y1="40.0008" x2="46.0017" y2="39.9967" gradientUnits="userSpaceOnUse">
<stop stop-color="#ED4924"/>
<stop offset="1" stop-color="#F17322"/>
</linearGradient>
<linearGradient id="paint13_linear" x1="0.999999" y1="40.0008" x2="46.0017" y2="39.9967" gradientUnits="userSpaceOnUse">
<stop stop-color="#ED4924"/>
<stop offset="1" stop-color="#F17322"/>
</linearGradient>
<linearGradient id="paint14_linear" x1="0.999999" y1="40.0008" x2="46.0017" y2="39.9967" gradientUnits="userSpaceOnUse">
<stop stop-color="#ED4924"/>
<stop offset="1" stop-color="#F17322"/>
</linearGradient>
<linearGradient id="paint15_linear" x1="0.999999" y1="40.0008" x2="46.0017" y2="39.9967" gradientUnits="userSpaceOnUse">
<stop stop-color="#ED4924"/>
<stop offset="1" stop-color="#F17322"/>
</linearGradient>
<linearGradient id="paint16_linear" x1="0.999999" y1="40.0008" x2="46.0017" y2="39.9967" gradientUnits="userSpaceOnUse">
<stop stop-color="#ED4924"/>
<stop offset="1" stop-color="#F17322"/>
</linearGradient>
<linearGradient id="paint17_linear" x1="0.999999" y1="40.0008" x2="46.0017" y2="39.9967" gradientUnits="userSpaceOnUse">
<stop stop-color="#ED4924"/>
<stop offset="1" stop-color="#F17322"/>
</linearGradient>
<linearGradient id="paint18_linear" x1="0.999999" y1="40.0008" x2="46.0017" y2="39.9967" gradientUnits="userSpaceOnUse">
<stop stop-color="#ED4924"/>
<stop offset="1" stop-color="#F17322"/>
</linearGradient>
<linearGradient id="paint19_linear" x1="0.999999" y1="40.0008" x2="46.0017" y2="39.9967" gradientUnits="userSpaceOnUse">
<stop stop-color="#ED4924"/>
<stop offset="1" stop-color="#F17322"/>
</linearGradient>
<linearGradient id="paint20_linear" x1="0.999999" y1="40.0008" x2="46.0017" y2="39.9967" gradientUnits="userSpaceOnUse">
<stop stop-color="#ED4924"/>
<stop offset="1" stop-color="#F17322"/>
</linearGradient>
<linearGradient id="paint21_linear" x1="0.999999" y1="40.0008" x2="46.0017" y2="39.9967" gradientUnits="userSpaceOnUse">
<stop stop-color="#ED4924"/>
<stop offset="1" stop-color="#F17322"/>
</linearGradient>
</defs>
</svg>
