<svg width="36" height="44" viewBox="0 0 36 44" fill="none" xmlns="http://www.w3.org/2000/svg">
<path fill-rule="evenodd" clip-rule="evenodd" d="M9.38519 17.7436C9.38519 12.9928 13.2503 9.12817 18.0006 9.12817C22.7509 9.12817 26.616 12.9933 26.616 17.7436C26.616 22.4944 22.7514 26.359 18.0006 26.359C13.2498 26.359 9.38519 22.4944 9.38519 17.7436ZM12.4621 17.7435C12.4621 20.7974 14.9467 23.282 18.0006 23.282C21.0545 23.282 23.5391 20.7974 23.5391 17.7435C23.5391 14.6896 21.0545 12.205 18.0006 12.205C14.9467 12.205 12.4621 14.6896 12.4621 17.7435Z" fill="url(#paint0_linear)"/>
<path fill-rule="evenodd" clip-rule="evenodd" d="M18.0006 0C23.9226 0 29.2462 2.78876 32.6052 7.65027C35.9478 12.4871 36.7195 18.6108 34.6698 24.0308C34.1272 25.4963 33.2585 26.9302 32.0913 28.2831L19.1718 43.4584C18.8795 43.8021 18.4513 44 18.0006 44C17.5498 44 17.1216 43.802 16.8293 43.4584L3.90622 28.2789C2.74417 26.9338 1.87439 25.4984 1.32724 24.021C-0.718443 18.6108 0.0533772 12.4871 3.39591 7.65027C6.75495 2.78876 12.0785 0 18.0006 0ZM29.7596 26.2773C30.6873 25.202 31.3704 24.084 31.7888 22.9533C33.4847 18.4688 32.8421 13.4056 30.0739 9.40002C27.2975 5.38147 22.8969 3.0769 18.0006 3.0769C13.1041 3.0769 8.70307 5.38159 5.9267 9.40002C3.159 13.4056 2.51694 18.4688 4.20871 22.9431C4.63126 24.0847 5.31439 25.2026 6.24158 26.2769L18.0006 40.0887L29.7524 26.2856C29.7544 26.2825 29.757 26.28 29.7596 26.2773Z" fill="url(#paint1_linear)"/>
<defs>
<linearGradient id="paint0_linear" x1="0.201171" y1="44.0009" x2="35.8003" y2="43.9986" gradientUnits="userSpaceOnUse">
<stop stop-color="#ED4924"/>
<stop offset="1" stop-color="#F17322"/>
</linearGradient>
<linearGradient id="paint1_linear" x1="0.201171" y1="44.0009" x2="35.8003" y2="43.9986" gradientUnits="userSpaceOnUse">
<stop stop-color="#ED4924"/>
<stop offset="1" stop-color="#F17322"/>
</linearGradient>
</defs>
</svg>
