<svg width="7" height="12" viewBox="0 0 7 12" fill="none" xmlns="http://www.w3.org/2000/svg">
<path d="M1.35355 0.646447C1.15829 0.451185 0.841709 0.451185 0.646447 0.646447C0.451185 0.841709 0.451185 1.15829 0.646447 1.35355L1.35355 0.646447ZM6 6L6.35355 6.35355L6.70711 6L6.35355 5.64645L6 6ZM0.646447 10.6464C0.451185 10.8417 0.451185 11.1583 0.646447 11.3536C0.841709 11.5488 1.15829 11.5488 1.35355 11.3536L0.646447 10.6464ZM0.646447 1.35355L5.64645 6.35355L6.35355 5.64645L1.35355 0.646447L0.646447 1.35355ZM5.64645 5.64645L0.646447 10.6464L1.35355 11.3536L6.35355 6.35355L5.64645 5.64645Z" fill="#154752"/>
</svg>
