<svg width="8" height="22" viewBox="0 0 8 22" fill="none" xmlns="http://www.w3.org/2000/svg">
<path d="M6.10557 21.4472C6.35256 21.9412 6.95324 22.1414 7.44721 21.8944C7.94119 21.6474 8.14142 21.0468 7.89443 20.5528L6.10557 21.4472ZM2 11L1.10557 10.5528L0.881966 11L1.10557 11.4472L2 11ZM7.89443 1.44721C8.14142 0.953236 7.94119 0.352562 7.44721 0.105574C6.95324 -0.141416 6.35256 0.0588093 6.10557 0.552788L7.89443 1.44721ZM7.89443 20.5528L2.89443 10.5528L1.10557 11.4472L6.10557 21.4472L7.89443 20.5528ZM2.89443 11.4472L7.89443 1.44721L6.10557 0.552788L1.10557 10.5528L2.89443 11.4472Z" fill="url(#paint0_linear)"/>
<defs>
<linearGradient id="paint0_linear" x1="7.0001" y1="21" x2="6.99387" y2="0.999224" gradientUnits="userSpaceOnUse">
<stop stop-color="#ED4924"/>
<stop offset="1" stop-color="#F17322"/>
</linearGradient>
</defs>
</svg>
