<svg width="8" height="22" viewBox="0 0 8 22" fill="none" xmlns="http://www.w3.org/2000/svg">
<path d="M1.89443 0.552878C1.64744 0.0588995 1.04676 -0.141325 0.552786 0.105664C0.0588074 0.352654 -0.141417 0.953327 0.105572 1.44731L1.89443 0.552878ZM6 11.0001L6.89443 11.4473L7.11803 11.0001L6.89443 10.5529L6 11.0001ZM0.105572 20.5529C-0.141417 21.0469 0.0588076 21.6475 0.552786 21.8945C1.04676 22.1415 1.64744 21.9413 1.89443 21.4473L0.105572 20.5529ZM0.105572 1.44731L5.10557 11.4473L6.89443 10.5529L1.89443 0.552878L0.105572 1.44731ZM5.10557 10.5529L0.105572 20.5529L1.89443 21.4473L6.89443 11.4473L5.10557 10.5529Z" fill="url(#paint0_linear)"/>
<defs>
<linearGradient id="paint0_linear" x1="0.999903" y1="1.00009" x2="1.00613" y2="21.0009" gradientUnits="userSpaceOnUse">
<stop stop-color="#ED4924"/>
<stop offset="1" stop-color="#F17322"/>
</linearGradient>
</defs>
</svg>
