<svg width="12" height="7" viewBox="0 0 12 7" fill="none" xmlns="http://www.w3.org/2000/svg">
<path d="M11.3504 0.921818C11.5474 0.728271 11.5502 0.411701 11.3566 0.214739C11.1631 0.0177763 10.8465 0.0150076 10.6496 0.208555L11.3504 0.921818ZM6 5.47848L5.64955 5.83512L6 6.17949L6.35045 5.83512L6 5.47848ZM1.35045 0.208554C1.15349 0.0150067 0.836916 0.0177754 0.643369 0.214738C0.449822 0.4117 0.45259 0.728271 0.649553 0.921818L1.35045 0.208554ZM10.6496 0.208555L5.64955 5.12185L6.35045 5.83512L11.3504 0.921818L10.6496 0.208555ZM6.35045 5.12185L1.35045 0.208554L0.649553 0.921818L5.64955 5.83512L6.35045 5.12185Z" fill="#D3D3D3"/>
</svg>
