<svg width="12" height="7" viewBox="0 0 12 7" fill="none" xmlns="http://www.w3.org/2000/svg">
<path d="M0.649554 5.39935C0.452591 5.59289 0.44982 5.90946 0.643366 6.10643C0.836912 6.30339 1.15348 6.30616 1.35045 6.11262L0.649554 5.39935ZM6 0.842743L6.35045 0.486109L6 0.141744L5.64955 0.486109L6 0.842743ZM10.6496 6.11262C10.8465 6.30616 11.1631 6.30339 11.3566 6.10643C11.5502 5.90946 11.5474 5.59289 11.3504 5.39935L10.6496 6.11262ZM1.35045 6.11262L6.35045 1.19938L5.64955 0.486109L0.649554 5.39935L1.35045 6.11262ZM5.64955 1.19938L10.6496 6.11262L11.3504 5.39935L6.35045 0.486109L5.64955 1.19938Z" fill="#828282"/>
</svg>
