<svg width="43" height="44" viewBox="0 0 43 44" fill="none" xmlns="http://www.w3.org/2000/svg">
<g id="Instagram">
<g id="Instagram_2">
<path id="Vector" d="M17.0221 22C17.0221 19.4688 19.0268 17.4163 21.5005 17.4163C23.9742 17.4163 25.98 19.4688 25.98 22C25.98 24.5312 23.9742 26.5837 21.5005 26.5837C19.0268 26.5837 17.0221 24.5312 17.0221 22ZM14.6005 22C14.6005 25.8995 17.6896 29.0605 21.5005 29.0605C25.3114 29.0605 28.4005 25.8995 28.4005 22C28.4005 18.1005 25.3114 14.9395 21.5005 14.9395C17.6896 14.9395 14.6005 18.1005 14.6005 22ZM27.0612 14.6596C27.061 14.9859 27.1555 15.305 27.3326 15.5764C27.5096 15.8478 27.7614 16.0594 28.056 16.1844C28.3506 16.3094 28.6748 16.3422 28.9876 16.2787C29.3004 16.2151 29.5878 16.0581 29.8134 15.8274C30.039 15.5968 30.1927 15.3028 30.2551 14.9828C30.3174 14.6628 30.2856 14.331 30.1637 14.0294C30.0417 13.7279 29.8352 13.4701 29.5701 13.2887C29.305 13.1073 28.9932 13.0104 28.6743 13.0103H28.6737C28.2462 13.0105 27.8362 13.1843 27.5339 13.4935C27.2316 13.8028 27.0615 14.2222 27.0612 14.6596ZM16.0718 33.1922C14.7617 33.1311 14.0496 32.9078 13.5764 32.7192C12.949 32.4692 12.5014 32.1716 12.0307 31.6907C11.5601 31.2097 11.2688 30.7521 11.0256 30.1102C10.8411 29.6262 10.6229 28.8973 10.5634 27.5568C10.4982 26.1074 10.4852 25.672 10.4852 22.0001C10.4852 18.3282 10.4993 17.894 10.5634 16.4435C10.623 15.1029 10.8429 14.3755 11.0256 13.89C11.2699 13.2481 11.5607 12.79 12.0307 12.3085C12.5007 11.8269 12.9479 11.5288 13.5764 11.28C14.0494 11.0912 14.7617 10.8679 16.0718 10.8069C17.4882 10.7403 17.9137 10.727 21.5005 10.727C25.0874 10.727 25.5133 10.7414 26.9309 10.8069C28.241 10.868 28.9519 11.093 29.4263 11.28C30.0536 11.5288 30.5013 11.8275 30.9719 12.3085C31.4425 12.7894 31.7328 13.2481 31.977 13.89C32.1615 14.374 32.3797 15.1029 32.4393 16.4435C32.5044 17.894 32.5174 18.3282 32.5174 22.0001C32.5174 25.672 32.5044 26.1062 32.4393 27.5568C32.3796 28.8973 32.1603 29.626 31.977 30.1102C31.7328 30.7521 31.4419 31.2102 30.9719 31.6907C30.5019 32.1712 30.0536 32.4692 29.4263 32.7192C28.9533 32.9079 28.241 33.1312 26.9309 33.1922C25.5145 33.2588 25.089 33.2721 21.5005 33.2721C17.9121 33.2721 17.4878 33.2588 16.0718 33.1922ZM15.9605 8.33327C14.53 8.39993 13.5525 8.63203 12.6988 8.97193C11.8148 9.32294 11.0664 9.79385 10.3185 10.5579C9.5706 11.322 9.11157 12.089 8.76854 12.9936C8.43637 13.8677 8.20954 14.8674 8.1444 16.3312C8.07818 17.7972 8.06302 18.2659 8.06302 22C8.06302 25.7341 8.07818 26.2028 8.1444 27.6688C8.20954 29.1327 8.43637 30.1323 8.76854 31.0064C9.11157 31.9104 9.57071 32.6784 10.3185 33.4421C11.0662 34.2058 11.8148 34.6761 12.6988 35.0281C13.5541 35.368 14.53 35.6001 15.9605 35.6667C17.394 35.7334 17.8513 35.75 21.5005 35.75C25.1497 35.75 25.6078 35.7345 27.0405 35.6667C28.4711 35.6001 29.448 35.368 30.3022 35.0281C31.1857 34.6761 31.9347 34.2062 32.6826 33.4421C33.4304 32.678 33.8885 31.9104 34.2325 31.0064C34.5647 30.1323 34.7926 29.1326 34.8566 27.6688C34.9218 26.2017 34.9369 25.7341 34.9369 22C34.9369 18.2659 34.9218 17.7972 34.8566 16.3312C34.7915 14.8673 34.5647 13.8671 34.2325 12.9936C33.8885 12.0895 33.4293 11.3232 32.6826 10.5579C31.9359 9.79264 31.1857 9.32294 30.3033 8.97193C29.448 8.63203 28.471 8.39883 27.0416 8.33327C25.6088 8.26661 25.1508 8.25 21.5016 8.25C17.8524 8.25 17.394 8.26551 15.9605 8.33327Z" fill="white"/>
</g>
</g>
</svg>
