<svg width="119" height="31" viewBox="0 0 119 31" fill="none" xmlns="http://www.w3.org/2000/svg">
<mask id="mask0" mask-type="alpha" maskUnits="userSpaceOnUse" x="0" y="0" width="119" height="31">
<rect x="0.892029" y="0.33667" width="117.197" height="29.7642" fill="#C4C4C4"/>
</mask>
<g mask="url(#mask0)">
<path d="M0.892029 9.01807C6.75186 9.01807 6.75186 14.5989 12.6117 14.5989C18.4715 14.5989 18.4715 9.01807 24.3313 9.01807C30.1912 9.01807 30.1912 14.5989 36.051 14.5989C41.9108 14.5989 41.9108 9.01807 47.7706 9.01807C53.6305 9.01807 53.6305 14.5989 59.4903 14.5989C65.3501 14.5989 65.3501 9.01807 71.2099 9.01807C77.0698 9.01807 77.0698 14.5989 82.9296 14.5989C88.7894 14.5989 88.7894 9.01807 94.6493 9.01807C100.509 9.01807 100.509 14.5989 106.371 14.5989C112.229 14.5989 112.229 9.01807 118.089 9.01807" stroke="url(#paint0_linear)" stroke-width="2" stroke-miterlimit="10"/>
<path d="M0.892029 16.46C6.75186 16.46 6.75186 22.0407 12.6117 22.0407C18.4715 22.0407 18.4715 16.46 24.3313 16.46C30.1912 16.46 30.1912 22.0407 36.051 22.0407C41.9108 22.0407 41.9108 16.46 47.7706 16.46C53.6305 16.46 53.6305 22.0407 59.4903 22.0407C65.3501 22.0407 65.3501 16.46 71.2099 16.46C77.0698 16.46 77.0698 22.0407 82.9296 22.0407C88.7894 22.0407 88.7894 16.46 94.6493 16.46C100.509 16.46 100.509 22.0407 106.371 22.0407C112.229 22.0407 112.229 16.46 118.089 16.46" stroke="url(#paint1_linear)" stroke-width="2" stroke-miterlimit="10"/>
</g>
<defs>
<linearGradient id="paint0_linear" x1="0.892025" y1="14.599" x2="118.093" y2="14.4075" gradientUnits="userSpaceOnUse">
<stop stop-color="#ED4924"/>
<stop offset="1" stop-color="#F17322"/>
</linearGradient>
<linearGradient id="paint1_linear" x1="0.892025" y1="22.0409" x2="118.093" y2="21.8494" gradientUnits="userSpaceOnUse">
<stop stop-color="#ED4924"/>
<stop offset="1" stop-color="#F17322"/>
</linearGradient>
</defs>
</svg>
