<svg width="189" height="48" viewBox="0 0 189 48" fill="none" xmlns="http://www.w3.org/2000/svg">
<mask id="mask0" mask-type="alpha" maskUnits="userSpaceOnUse" x="0" y="0" width="189" height="48">
<rect width="189" height="48" fill="#C4C4C4"/>
</mask>
<g mask="url(#mask0)">
<path d="M0 14C9.45 14 9.45 23 18.9 23C28.35 23 28.35 14 37.8 14C47.25 14 47.25 23 56.7 23C66.15 23 66.15 14 75.6 14C85.05 14 85.05 23 94.5 23C103.95 23 103.95 14 113.4 14C122.85 14 122.85 23 132.3 23C141.75 23 141.75 14 151.2 14C160.65 14 160.65 23 170.104 23C179.55 23 179.55 14 189 14" stroke="url(#paint0_linear)" stroke-width="2" stroke-miterlimit="10"/>
<path d="M0 26C9.45 26 9.45 35 18.9 35C28.35 35 28.35 26 37.8 26C47.25 26 47.25 35 56.7 35C66.15 35 66.15 26 75.6 26C85.05 26 85.05 35 94.5 35C103.95 35 103.95 26 113.4 26C122.85 26 122.85 35 132.3 35C141.75 35 141.75 26 151.2 26C160.65 26 160.65 35 170.104 35C179.55 35 179.55 26 189 26" stroke="url(#paint1_linear)" stroke-width="2" stroke-miterlimit="10"/>
</g>
<defs>
<linearGradient id="paint0_linear" x1="-5.9434e-06" y1="23.0002" x2="189.007" y2="22.6913" gradientUnits="userSpaceOnUse">
<stop stop-color="#ED4924"/>
<stop offset="1" stop-color="#F17322"/>
</linearGradient>
<linearGradient id="paint1_linear" x1="-5.9434e-06" y1="35.0002" x2="189.007" y2="34.6913" gradientUnits="userSpaceOnUse">
<stop stop-color="#ED4924"/>
<stop offset="1" stop-color="#F17322"/>
</linearGradient>
</defs>
</svg>
