<svg width="227" height="116" fill="none" xmlns="http://www.w3.org/2000/svg"><mask id="a" maskUnits="userSpaceOnUse" x="0" y="29" width="227" height="58"><path fill="#fff" d="M0 29.3h227v57.651H0z"/></mask><g mask="url(#a)" stroke-width="3" stroke-miterlimit="10"><path d="M0 46.114c11.35 0 11.35 10.81 22.7 10.81s11.35-10.81 22.7-10.81 11.35 10.81 22.7 10.81 11.35-10.81 22.7-10.81 11.35 10.81 22.7 10.81 11.35-10.81 22.7-10.81 11.35 10.81 22.7 10.81 11.35-10.81 22.7-10.81 11.35 10.81 22.704 10.81c11.346 0 11.346-10.81 22.696-10.81" stroke="url(#paint0_linear)"/><path d="M0 60.527c11.35 0 11.35 10.81 22.7 10.81s11.35-10.81 22.7-10.81 11.35 10.81 22.7 10.81 11.35-10.81 22.7-10.81 11.35 10.81 22.7 10.81 11.35-10.81 22.7-10.81 11.35 10.81 22.7 10.81 11.35-10.81 22.7-10.81 11.35 10.81 22.704 10.81c11.346 0 11.346-10.81 22.696-10.81" stroke="url(#paint1_linear)"/></g><mask id="b" maskUnits="userSpaceOnUse" x="0" y="58" width="227" height="58"><path fill="#fff" d="M0 58.191h227v57.651H0z"/></mask><g mask="url(#b)" stroke-width="3" stroke-miterlimit="10"><path d="M0 75.005c11.35 0 11.35 10.81 22.7 10.81s11.35-10.81 22.7-10.81 11.35 10.81 22.7 10.81 11.35-10.81 22.7-10.81 11.35 10.81 22.7 10.81 11.35-10.81 22.7-10.81 11.35 10.81 22.7 10.81 11.35-10.81 22.7-10.81 11.35 10.81 22.704 10.81c11.346 0 11.346-10.81 22.696-10.81" stroke="url(#paint2_linear)"/><path d="M0 89.418c11.35 0 11.35 10.81 22.7 10.81s11.35-10.81 22.7-10.81 11.35 10.81 22.7 10.81 11.35-10.81 22.7-10.81 11.35 10.81 22.7 10.81 11.35-10.81 22.7-10.81 11.35 10.81 22.7 10.81 11.35-10.81 22.7-10.81 11.35 10.81 22.704 10.81c11.346 0 11.346-10.81 22.696-10.81" stroke="url(#paint3_linear)"/></g><mask id="c" maskUnits="userSpaceOnUse" x="0" y="0" width="227" height="59"><path fill="#fff" d="M0 .409h227V58.06H0z"/></mask><g mask="url(#c)" stroke-width="3" stroke-miterlimit="10"><path d="M0 17.224c11.35 0 11.35 10.809 22.7 10.809s11.35-10.81 22.7-10.81 11.35 10.81 22.7 10.81 11.35-10.81 22.7-10.81 11.35 10.81 22.7 10.81 11.35-10.81 22.7-10.81 11.35 10.81 22.7 10.81 11.35-10.81 22.7-10.81 11.35 10.81 22.704 10.81c11.346 0 11.346-10.81 22.696-10.81" stroke="url(#paint4_linear)"/><path d="M0 31.636c11.35 0 11.35 10.81 22.7 10.81s11.35-10.81 22.7-10.81 11.35 10.81 22.7 10.81 11.35-10.81 22.7-10.81 11.35 10.81 22.7 10.81 11.35-10.81 22.7-10.81 11.35 10.81 22.7 10.81 11.35-10.81 22.7-10.81 11.35 10.81 22.704 10.81c11.346 0 11.346-10.81 22.696-10.81" stroke="url(#paint5_linear)"/></g><defs><linearGradient id="paint0_linear" x1="0" y1="56.924" x2="227.008" y2="56.553" gradientUnits="userSpaceOnUse"><stop stop-color="#fff"/><stop offset="1" stop-color="#fff"/></linearGradient><linearGradient id="paint1_linear" x1="0" y1="71.337" x2="227.008" y2="70.966" gradientUnits="userSpaceOnUse"><stop stop-color="#fff"/><stop offset="1" stop-color="#fff"/></linearGradient><linearGradient id="paint2_linear" x1="0" y1="85.815" x2="227.008" y2="85.444" gradientUnits="userSpaceOnUse"><stop stop-color="#fff"/><stop offset="1" stop-color="#fff"/></linearGradient><linearGradient id="paint3_linear" x1="0" y1="100.228" x2="227.008" y2="99.857" gradientUnits="userSpaceOnUse"><stop stop-color="#fff"/><stop offset="1" stop-color="#fff"/></linearGradient><linearGradient id="paint4_linear" x1="0" y1="28.033" x2="227.008" y2="27.662" gradientUnits="userSpaceOnUse"><stop stop-color="#fff"/><stop offset="1" stop-color="#fff"/></linearGradient><linearGradient id="paint5_linear" x1="0" y1="42.446" x2="227.008" y2="42.075" gradientUnits="userSpaceOnUse"><stop stop-color="#fff"/><stop offset="1" stop-color="#fff"/></linearGradient></defs></svg>